PathFileType	4	(X/Y/Z)	traj.trc
DataRate	CameraRate	NumFrames	NumMarkers	Units	OrigDataRate	OrigDataStartFrame	OrigNumFrames
30.00	30.00	154	1	mm	30.00	1	200
Frame#	Time	wrist		
		X1	Y1	Z1

0	0.0	456.2489092350006	491.85362458229065	-73.65311682224274
1	0.020100502512562814	456.2489092350006	491.85362458229065	-73.65311682224274
2	0.04020100502512563	456.2487926699047	491.8543772490722	-73.6532889691223
3	0.06030150753768844	456.248214542233	491.85811024899544	-73.65414276565488
4	0.08040201005025126	456.2467249804093	491.8677284258191	-73.65634259586929
5	0.10050251256281408	456.2438880278829	491.88604677327254	-73.66053229366182
6	0.12060301507537688	456.23928150041	491.915791356595	-73.66733535356677
7	0.1407035175879397	456.23249684333547	491.9596002340741	-73.67735514152712
8	0.16080402010050251	456.223138988875	492.02002437858494	-73.69117510566502
9	0.18090452261306533	456.21082621339656	492.09952859912846	-73.7093589870525
10	0.20100502512562815	456.1951899947023	492.2004924623705	-73.73245103048194
11	0.22110552763819097	456.1758748693103	492.32521121418046	-73.76097619523671
12	0.24120603015075376	456.1525382897366	492.4758967011698	-73.79544036586182
13	0.2613065326633166	456.12485048177655	492.65467829223144	-73.83633056293438
14	0.2814070351758794	456.092494301787	492.86360380007767	-73.88411515383436
15	0.30150753768844224	456.05516509396796	493.1046404027797	-73.93924406351498
16	0.32160804020100503	456.0125705476443	493.379675565306	-74.00214898527348
17	0.3417085427135678	455.96443055454773	493.690517961061	-74.07324359152159
18	0.36180904522613067	455.9104770660983	494.0388983934242	-74.15292374455622
19	0.38190954773869346	455.8504539506866	494.42647071728845	-74.24156770732993
20	0.4020100502512563	455.7841168509551	494.85481276059926	-74.33953635422165
21	0.4221105527638191	455.7112330410804	495.32542724589314	-74.44717338180716
22	0.44221105527638194	455.6315812840546	495.8397427118364	-74.56480551962973
23	0.4623115577889447	455.54495168896744	496.39911443476416	-74.69274274097074
24	0.4824120603015075	455.45114556828787	497.0048253502188	-74.83127847362022
25	0.5025125628140703	455.3499752951459	497.6580869744891	-74.98068981064743
26	0.5226130653266332	455.2412641606144	498.36004032614846	-75.14123772117152
27	0.542713567839196	455.12484623099084	499.1117568475942	-75.31316726113207
28	0.5628140703517588	455.0005662050794	499.9142393265861	-75.49670778405965
29	0.5829145728643216	454.8682792714722	500.7684228177849	-75.6920731518465
30	0.6030150753768845	454.7278509658316	501.6751755642915	-75.89946194551703
31	0.6231155778894473	454.57915702817155	502.6352999191856	-76.11905767599848
32	0.6432160804020101	454.4220832601399	503.64953326706427	-76.35102899489145
33	0.6633165829145728	454.25652538229974	504.71854894558066	-76.59552990524053
34	0.6834170854271356	454.0823888914115	505.84295716698324	-76.85269997230489
35	0.7035175879396985	453.89958891771437	507.02330593965405	-77.12266453432885
36	0.7236180904522613	453.7080500822086	508.2600819896477	-77.40553491331248
37	0.7437185929648241	453.5077063539369	509.5537116822301	-77.7014086257822
38	0.7638190954773869	453.29850090726626	510.9045619434169	-78.01036959356132
39	0.7839195979899498	453.08038597917005	512.3129411815132	-78.33248835454074
40	0.8040201005025126	452.8533227265095	513.7791002086511	-78.66782227344943
41	0.8241206030150754	452.6172810833155	515.3032331623292	-79.01641575262504
42	0.8442211055276382	452.3722396180706	516.8854784269511	-79.37830044278455
43	0.864321608040201	452.11818539099073	518.5259195553643	-79.7534954537948
44	0.8844221105527639	451.8551138113068	520.2245861903989	-80.14200756544312
45	0.9045226130653267	451.58302849454685	521.9814549864064	-80.5438314382079
46	0.9246231155778895	451.30194111981734	523.7964505307983	-80.95894982402913
47	0.9447236180904522	451.01187128708557	525.6694462655851	-81.38733377707915
48	0.964824120603015	450.7128463744609	527.6002654089145	-81.82894286453302
49	0.9849246231155779	450.40490139547694	529.5886818766114	-82.28372537733927
50	1.0050251256281406	450.0880788563731	531.6344212037152	-82.75161854099048
51	1.0251256281407035	449.76242861337647	533.7371614660193	-83.23254872629376
52	1.0452261306532664	449.4280077299836	535.8965342016099	-83.72643166014147
53	1.065326633165829	449.0848803342425	538.1121253324047	-84.23317263628174
54	1.085427135678392	448.73311747603395	540.3834760856913	-84.75266672608906
55	1.105527638190955	448.37279698435367	542.7100839156665	-85.28479898933487
56	1.1256281407035176	448.0040033245942	545.0914034249745	-85.82944468495823
57	1.1457286432160805	447.6268274558263	547.5268472862465	-86.38646948183629
58	1.1658291457286432	447.241366688081	550.0157871636382	-86.95572966955494
59	1.185929648241206	446.84772453963143	552.55755463437	-87.53707236917938
60	1.206030150753769	446.4460105942745	555.1514421102647	-88.1303357440248
61	1.2261306532663316	446.0363403586128	557.7967037592864	-88.7353492104268
62	1.2462311557788945	445.6188351193361	560.4925564270796	-89.35193364851216
63	1.2663316582914572	445.1936218005036	563.2381805585081	-89.97990161296924
64	1.2864321608040201	444.76083282082527	566.0327211191933	-90.6190575438188
65	1.306532663316583	444.3206059509441	568.8752885170528	-91.26919797718439
66	1.3266331658291457	443.87308417071745	571.7649595238399	-91.93011175606303
67	1.3467336683417086	443.4184155264992	574.700778196682	-92.60158024109579
68	1.3668341708542713	442.9567529884212	577.6817567996188	-93.2833775213384
69	1.3869346733668342	442.48825430767533	580.7068767251423	-93.97527062503175
70	1.407035175879397	442.01308187379533	583.7750894157339	-94.67701973037265
71	1.4271356783919598	441.5314025719383	586.8853172854051	-95.38837837628422
72	1.4472361809045227	441.04338764016677	590.0364546412346	-96.10909367318665
73	1.4673366834170853	440.5492125267303	593.2273686049078	-96.83890651376767
74	1.4874371859296482	440.04905674734744	596.4569000342559	-97.57755178375321
75	1.5075376884422111	439.54310374248746	599.7238644447933	-98.32475857267798
76	1.5276381909547738	439.031540734652	603.0270529312584	-99.080250384656
77	1.5477386934673367	438.51455858565714	606.3652330891503	-99.8437453491513
78	1.5678391959798996	437.9923516539149	609.737149936269	-100.61495643174842
79	1.5879396984924623	437.46511765171533	613.1415268342537	-101.39359164492302
80	1.6080402010050252	436.933057502508	616.5770664101213	-102.17935425881252
81	1.6281407035175879	436.396375198184	620.0424514778055	-102.9719430119866
82	1.6482412060301508	435.85527765635766	623.5363459596952	-103.77105232221787
83	1.6683417085427137	435.3099745776484	627.0573958081739	-104.57637249725242
84	1.6884422110552764	434.7606783029625	630.6042299271577	-105.38758994558043
85	1.7085427135678393	434.20760367077463	634.1754610936348	-106.20438738720675
86	1.728643216080402	433.65096787441024	637.7696868792033	-107.02644406442147
87	1.7487437185929648	433.09099031932675	641.3854905716111	-107.85343595257058
88	1.7688442211055277	432.5278924803956	645.0214420962939	-108.68503597082643
89	1.7889447236180904	431.9618977591842	648.676098937914	-109.52091419295851
90	1.8090452261306533	431.3932313412373	652.3480070618994	-110.36073805810383
91	1.829145728643216	430.8221200533593	656.0357018359823	-111.20417258153768
92	1.849246231155779	430.2487922208955	659.7377089517378	-112.05088056544413
93	1.8693467336683418	429.6734775250145	663.4525453461231	-112.9005228096866
94	1.8894472361809045	429.0964068599893	667.1787201230158	-113.75275832257861
95	1.9095477386934674	428.51781219047984	670.9147354747524	-114.6072445316541
96	1.92964824120603	427.937926408814	674.6590876036684	-115.46363749443833
97	1.949748743718593	427.35698319227015	678.4102676436352	-116.32159210921816
98	1.9698492462311559	426.77521686035834	682.1667625816001	-117.18076232581292
99	1.9899497487437185	426.1928622321026	685.9270561791251	-118.04080135634482
100	2.0100502512562812	425.6101544833221	689.6896298939246	-118.90136188600958
101	2.030150753768844	425.0273290039138	693.4529638014055	-119.76209628384706
102	2.050251256281407	424.4446212551333	697.2155375162052	-120.62265681351181
103	2.07035175879397	423.86226662687756	700.9758311137301	-121.4826958440437
104	2.090452261306533	423.28050029496575	704.7323260516952	-122.34186606063847
105	2.1105527638190953	422.69955707842183	708.4835060916616	-123.1998206754183
106	2.130653266331658	422.11967129675605	712.2278582205777	-124.05621363820252
107	2.150753768844221	421.54107662724647	715.9638735723144	-124.91069984727801
108	2.170854271356784	420.9640059622214	719.690048349207	-125.76293536017002
109	2.190954773869347	420.38869126634035	723.4048847435923	-126.6125776044125
110	2.21105527638191	419.8153634338766	727.1068918593478	-127.45928558831892
111	2.2311557788944723	419.2442521459986	730.7945866334306	-128.3027201117528
112	2.251256281407035	418.6755857280517	734.4664947574161	-129.1425439768981
113	2.271356783919598	418.1095910068403	738.1211515990362	-129.97842219903018
114	2.291457286432161	417.54649316790915	741.757103123719	-130.81002221728605
115	2.311557788944724	416.9865156128256	745.3729068161268	-131.63701410543513
116	2.3316582914572863	416.4298798164612	748.9671326016953	-132.45907078264986
117	2.351758793969849	415.8768051842734	752.5383637681724	-133.27586822427617
118	2.371859296482412	415.3275089095875	756.0851978871563	-134.0870856726042
119	2.391959798994975	414.78220583087824	759.606247735635	-134.89240584763874
120	2.412060301507538	414.2411082890519	763.1001422175246	-135.69151515787001
121	2.4321608040201004	413.7044259847279	766.5655272852088	-136.4841039110441
122	2.4522613065326633	413.1723658355205	770.0010668610764	-137.26986652493358
123	2.472361809045226	412.645131833321	773.405443759061	-138.0485017381082
124	2.492462311557789	412.12292490157876	776.7773606061799	-138.81971282070532
125	2.512562814070352	411.60594275258387	780.1155407640717	-139.5832077852006
126	2.5326633165829144	411.09437974474844	783.4187292505368	-140.33869959717865
127	2.5527638190954773	410.58842673988846	786.6856936610742	-141.0859063861034
128	2.5728643216080402	410.0882709605056	789.9152250904223	-141.82455165608894
129	2.592964824120603	409.5940958470691	793.1061390540955	-142.55436449666996
130	2.613065326633166	409.1060809152975	796.257276409925	-143.2750797935724
131	2.6331658291457285	408.6244016134405	799.3675042795962	-143.98643843948395
132	2.6532663316582914	408.1492291795605	802.4357169701879	-144.68818754482484
133	2.6733668341708543	407.6807304988147	805.4608368957113	-145.3800806485182
134	2.693467336683417	407.21906796073665	808.4418154986481	-146.0618779287608
135	2.71356783919598	406.7643993165184	811.3776341714901	-146.73334641379358
136	2.7336683417085426	406.31687753629177	814.2673051782773	-147.39426019267222
137	2.7537688442211055	405.8766506664106	817.1098725761368	-148.0444006260378
138	2.7738693467336684	405.4438616867323	819.9044131368219	-148.68355655688737
139	2.7939698492462313	405.0186483678998	822.6500372682503	-149.31152452134447
140	2.814070351758794	404.6011431286231	825.3458899360437	-149.9281089594298
141	2.8341708542713566	404.1914728929614	827.9911515850654	-150.5331224258318
142	2.8542713567839195	403.7897589476044	830.5850390609601	-151.1263858006772
143	2.8743718592964824	403.39611679915487	833.126806531692	-151.70772850030167
144	2.8944723618090453	403.0106560314096	835.6157464090836	-152.2769886880203
145	2.9145728643216082	402.63348016264166	838.0511902703556	-152.83401348489838
146	2.9346733668341707	402.26468650288217	840.4325097796636	-153.37865918052174
147	2.9547738693467336	401.90436601120194	842.7591176096388	-153.91079144376758
148	2.9748743718592965	401.55260315299336	845.0304683629254	-154.43028553357487
149	2.9949748743718594	401.20947575725216	847.2460594937202	-154.93702650971514
150	3.0150753768844223	400.87505487385937	849.4054322293108	-155.43090944356285
151	3.035175879396985	400.54940463086274	851.5081724916149	-155.91183962886612
152	3.0552763819095476	400.23258209175896	853.5539118187187	-156.37973279251733
153	3.0753768844221105	399.9246371127749	855.5423282864155	-156.8345153053236
